<svg width="41" height="41" viewBox="0 0 41 41" fill="none" xmlns="http://www.w3.org/2000/svg">
<g clip-path="url(#clip0_1_2)">
<path d="M25.08 24.68C24.84 24.2267 24.2267 23.5733 23.24 22.72C20.6533 23.68 17.6933 23.7867 14.36 23.04L14.4 34.16L8.8 33V6.24C11.2267 5.57333 13.9333 5.13333 16.92 4.92C19.9333 4.70667 21.8267 4.86666 22.6 5.4C23.4 6.12 24.6533 7.33333 26.36 9.04C28.0667 10.7467 29.2533 11.9867 29.92 12.76C30.6133 13.6133 30.5333 15 29.68 16.92C28.8533 18.84 27.4267 20.4267 25.4 21.68C28.2267 22.88 29.76 23.6133 30 23.88C30.3467 24.3867 30.5867 24.9733 30.72 25.64C30.88 26.28 30.96 26.8267 30.96 27.28C30.96 27.7333 30.9333 28.3733 30.88 29.2C30.8267 30.0267 30.8 30.5867 30.8 30.88C30.8 31.1467 30.7733 31.56 30.72 32.12C30.6933 32.6533 30.68 33.0533 30.68 33.32C30.68 33.5867 30.72 33.92 30.8 34.32C30.88 34.7467 31.0133 35.08 31.2 35.32C31.3867 35.56 31.6667 35.8133 32.04 36.08C32.4133 36.3467 32.8933 36.5733 33.48 36.76C31.3733 37.1867 29.6133 36.84 28.2 35.72C26.8133 34.6267 26.0533 33.0133 25.92 30.88C25.92 30.72 25.8933 30.2267 25.84 29.4C25.8133 28.5733 25.7733 27.9733 25.72 27.6C25.6933 27.2267 25.6267 26.7467 25.52 26.16C25.4133 25.5467 25.2667 25.0533 25.08 24.68ZM24.4 9.92C22.8267 8.42667 19.4667 8.21333 14.32 9.28L14.36 20.48C16.2267 20.5067 17.9067 20.24 19.4 19.68C20.92 19.0933 22.08 18.36 22.88 17.48C23.68 16.5733 24.2933 15.6267 24.72 14.64C25.1467 13.6533 25.32 12.7333 25.24 11.88C25.16 11.0267 24.88 10.3733 24.4 9.92Z" fill="url(#paint0_linear_1_2)"/>
</g>
<defs>
<linearGradient id="paint0_linear_1_2" x1="-7" y1="-9.5" x2="46.5" y2="44.5" gradientUnits="userSpaceOnUse">
<stop stop-color="#036207"/>
<stop offset="1" stop-color="#071278"/>
</linearGradient>
<clipPath id="clip0_1_2">
<rect width="41" height="41" fill="white"/>
</clipPath>
</defs>
</svg>
