<!DOCTYPE svg PUBLIC "-//W3C//DTD SVG 1.1//EN" "http://www.w3.org/Graphics/SVG/1.1/DTD/svg11.dtd">
<!-- Uploaded to: SVG Repo, www.svgrepo.com, Transformed by: SVG Repo Mixer Tools -->
<svg fill="#ffffff" width="800px" height="800px" viewBox="0 0 24 24" xmlns="http://www.w3.org/2000/svg" stroke="#ffffff">
<g id="SVGRepo_bgCarrier" stroke-width="0"/>
<g id="SVGRepo_tracerCarrier" stroke-linecap="round" stroke-linejoin="round"/>
<g id="SVGRepo_iconCarrier">
<path d="M15.5,8H13V4a1,1,0,0,0-2,0V8H8.773A6.681,6.681,0,0,0,2,14.3,6.5,6.5,0,0,0,8.5,21H9V20a3,3,0,0,1,6,0v1h.227A6.681,6.681,0,0,0,22,14.7,6.5,6.5,0,0,0,15.5,8ZM10,14.5H9v1a1,1,0,0,1-2,0v-1H6a1,1,0,0,1,0-2H7v-1a1,1,0,0,1,2,0v1h1a1,1,0,0,1,0,2ZM16,16a1,1,0,1,1,1-1A1,1,0,0,1,16,16Zm2-3a1,1,0,1,1,1-1A1,1,0,0,1,18,13Z"/>
</g>
</svg>